HIERARCHY
ROOT Hips
{
  OFFSET 0.0 0.0 0.0
  CHANNELS 6 XPOSITION YPOSITION ZPOSITION ZROTATION XROTATION YROTATION 
  JOINT LeftUpLeg
  {
    OFFSET 0.089458038 -0.086670642 0.001016508
    CHANNELS 3 ZROTATION XROTATION YROTATION 
    JOINT LeftLeg
    {
      OFFSET -3.0480000000000003e-06 -0.44256934600000003 0.040725597999999995
      CHANNELS 3 ZROTATION XROTATION YROTATION 
      JOINT LeftFoot
      {
        OFFSET -0.0025328880000000005 -0.41911778 -0.041605708000000005
        CHANNELS 3 ZROTATION XROTATION YROTATION 
        End Site
        {
          OFFSET -0.00040005 -0.044151042 0.08499119399999999
        }
      }
    }
  }
  JOINT Spine
  {
    OFFSET 0.0 0.11890502000000001 0.0
    CHANNELS 3 ZROTATION XROTATION YROTATION 
    JOINT Spine1
    {
      OFFSET -0.0 0.256575052 0.0012705080000000003
      CHANNELS 3 ZROTATION XROTATION YROTATION 
      End Site
      {
        OFFSET -0.0028999179999999996 0.215084406 0.025247600000000002
      }
      JOINT RightArm
      {
        OFFSET -0.16272758 -0.05365633 0.0010218419999999998
        CHANNELS 3 ZROTATION XROTATION YROTATION 
        JOINT RightForeArm
        {
          OFFSET -0.263648698 -0.000263906 -0.014099794
          CHANNELS 3 ZROTATION XROTATION YROTATION 
          End Site
          {
            OFFSET -0.22031909200000002 0.001914652 0.010174732
          }
        }
      }
      JOINT LeftArm
      {
        OFFSET 0.16272758 -0.05365633 0.0010208260000000003
        CHANNELS 3 ZROTATION XROTATION YROTATION 
        JOINT LeftForeArm
        {
          OFFSET 0.26260552000000004 -0.000263144 -0.014100810000000002
          CHANNELS 3 ZROTATION XROTATION YROTATION 
          End Site
          {
            OFFSET 0.220897958 0.001915922 0.01017524
          }
        }
      }
    }
  }
  JOINT RightUpLeg
  {
    OFFSET -0.089458038 -0.086670642 0.001016508
    CHANNELS 3 ZROTATION XROTATION YROTATION 
    JOINT RightLeg
    {
      OFFSET 1.5240000000000001e-06 -0.44256706 0.04075049
      CHANNELS 3 ZROTATION XROTATION YROTATION 
      JOINT RightFoot
      {
        OFFSET 0.0015628620000000001 -0.419119812 -0.041630854
        CHANNELS 3 ZROTATION XROTATION YROTATION 
        End Site
        {
          OFFSET 7.5692e-05 -0.044151550000000005 0.084991702
        }
      }
    }
  }
}
MOTION
Frames: 12
Frame Time: 0.033333
1.4807158599999999 1.0389909207377772 0.05035296 -2.884024538592847 -0.3404765524712318 -91.69097292786573 -2.9667460268479293 7.337475003632414 1.4501778671708794 1.55356676080248 0.007969083193472708 22.083400067883783 -1.8494310255752742 -5.100390828740954 0.07951484117178687 3.2484497086457003 1.65348677210936 0.6705792215319778 -3.1777939630028573 3.252245586276935 1.3146176086097554 75.97804077998136 7.39072401217548 11.658406351838806 8.082688769442179 31.641882688648742 5.939669532913312 -71.9214753186949 18.96638518354052 -3.8837591139642016 -3.0005074384718906 23.111522830436417 -14.79634637447805 1.1161985855084753 3.87305321932703 -2.556542581100123 -0.35769151066572 3.5104378359608184 -11.239162510394253 1.0370414955047875 -5.060593877768229 -0.04487492314625896 
1.4807158599999999 1.0389909207377772 0.050286920000000006 -2.8941097397891937 -0.35129437149734194 -91.66669160536634 -2.9798478237798944 7.372781105225856 1.444848185184154 1.5608529718212967 -0.05577528474168446 22.104411437318035 -1.8332291765337692 -5.100390401854131 0.0784104716201472 3.2044109967549854 1.663888296441643 0.6642801329307865 -3.1658270446901717 3.25535460300976 1.3069093132445728 75.95759802379551 7.4127513722487715 11.637216543712487 8.141171410436767 31.347252233516485 5.916931833166339 -71.9174659976521 19.268561290158345 -3.882293611500411 -2.9353867073776967 22.806157025476193 -14.918162798325227 1.1073471939526676 3.8643242375677533 -2.5689444970855737 -0.35419749537928824 3.5641709341613086 -11.249040671481383 1.0369229276896643 -5.0956937930261015 -0.04477696929561812 
1.4807158599999999 1.0389909207377772 0.05015484 -2.8842326459191208 -0.3612158615970202 -91.65986141619632 -2.9829382709359136 7.364603661242058 1.438569853954737 1.5643264431793655 -0.061611094418078556 22.10701373939181 -1.856195260731114 -5.100390828740954 0.07991642828053586 3.10873690851262 1.6627895964806232 0.6603780672022993 -3.10356368054657 3.280967385510485 1.2921183251534987 75.90239643492347 7.397392838126351 11.64570476130352 8.223959279592846 30.961770017139305 5.858496576609118 -71.89102633537497 19.445732982133894 -3.9628057470024056 -2.9209350943110075 22.626704050317862 -14.970365934151635 1.1074279822839441 3.8491548143079783 -2.563887382335414 -0.35916733845454524 3.5831112621731656 -11.256290063511706 1.0399924573913504 -5.111794256447114 -0.04497889009800993 
1.48069808 1.0389909207377772 0.050035460000000004 -2.852421253303198 -0.36545727566946584 -91.69977021151671 -2.978866410973528 7.319943615580284 1.430258794395301 1.565526955647701 -0.02343776745647231 22.120501655455293 -1.9035269775754213 -5.094690182104932 0.08302801967451301 3.0138775337721904 1.6901907146051276 0.6516835565539905 -3.0433105264530678 3.245502055132017 1.2717401355996483 75.86843673437016 7.350420773430527 11.680274056240249 8.280170028914759 30.880893747177186 5.7780373750731915 -71.84075614308368 19.04991498199519 -4.1049624741978805 -3.0626879865718055 23.026435748850982 -14.764167645750828 1.116975519526564 3.8305493790088634 -2.538174067987843 -0.37586912532678335 3.5463407253329904 -11.239201783981981 1.0620737119260613 -5.092893842353219 -0.0464835127370763 
1.48067776 1.0389909207377772 0.04997704 -2.8147807211174922 -0.3703948621091504 -91.78825531221422 -2.987403720549221 7.298793081041693 1.4165807002521156 1.5720043228584004 -0.04851336958619938 22.206507397484092 -1.916288332265944 -5.072289722948229 0.0838282723853152 2.9699677417020593 1.7643930359744997 0.6310992340254231 -3.0623603509350565 3.1108564015894395 1.253948133142 75.87253484787217 7.356155571012399 11.716966686235203 8.31550088994394 31.05667891075122 5.708301997421008 -71.78127202560205 18.444951466828822 -4.1843843407536125 -3.232058535298139 23.665405068347553 -14.482113276427858 1.1221890882973995 3.79516387646632 -2.510709237004987 -0.39654867029733415 3.517796937904684 -11.182441204431882 1.0896314975146528 -5.071293369103054 -0.04828902722043355 
1.4806396600000002 1.0389909207377772 0.04994402 -2.7772851170082378 -0.37317963161938505 -91.92976317143855 -3.0042939245930165 7.305529355110618 1.4042014092682906 1.582532098968623 -0.12549352021987725 22.36385617294097 -1.9017088665957287 -5.044489999252631 0.08292117790681255 2.975549286914429 1.839392781929471 0.6184186676661771 -3.1382533575674185 2.969888340752958 1.2553864215708164 75.89130420771137 7.422391330488598 11.760813939385745 8.342569783398348 31.18814297680104 5.6751567969262275 -71.72238896476736 18.174050796420484 -4.158565798804141 -3.2705248800431814 24.01235818761669 -14.376907872642152 1.1290250404395243 3.745706903573081 -2.4770948878915924 -0.4226607502985573 3.514709052069603 -11.080304263130804 1.0967006365839103 -5.055493860892344 -0.04878980214954647 
1.48055584 1.0389909207377772 0.04988814 -2.7566310518449426 -0.3599913367448838 -92.1105309580121 -3.0064462879552165 7.318519521138336 1.4060569795667126 1.5946650762555044 -0.16089775242178544 22.53619379853144 -1.9118687729861226 -5.035690154280716 0.08352237462601252 2.98384732642576 1.8755851005677224 0.6340396838239666 -3.1648607863660265 2.92067597400937 1.2766585121322922 75.89025918876835 7.468560847956946 11.824517406227162 8.348074062095732 31.178997353502393 5.67893730663183 -71.67112839504642 18.183998966946607 -4.114900826327072 -3.2332988549627313 24.086018362720694 -14.398221477947176 1.1575811008639958 3.7242763312785194 -2.42302006678919 -0.4587619286000713 3.4922802049391626 -10.951888168998101 1.0730453436106289 -5.03029345106276 -0.04738249636593956 
1.4803551799999999 1.0389909207377772 0.04981448 -2.7714884208370125 -0.32669173662226514 -92.27558247930547 -2.9869951898594898 7.356341693667282 1.427350841356168 1.6100151793631676 -0.15030194122412716 22.681381422171107 -1.9456496079605363 -5.052489858318008 0.08573312810148846 2.9585083918220705 1.889274293768309 0.660959326972838 -3.0922037952963697 2.9370566886297644 1.2898946716918365 75.86648330026755 7.458680979322522 11.88039433005339 8.320624385595098 31.152987993142983 5.705337695321222 -71.63175235448129 18.15630596495679 -4.111814434595873 -3.2560254556523023 24.176303218264508 -14.364523032129627 1.205818671546976 3.7635968765566368 -2.366406336306247 -0.49112656653876513 3.4418337083899178 -10.839087594855341 1.0416416279107912 -5.004893685086775 -0.04537299668219429 
1.48002498 1.0389909207377772 0.04975098 -2.810995088770013 -0.28879069675274704 -92.37843829801669 -2.9606268176818324 7.437808774992609 1.4606929433981142 1.6261174570531785 -0.16566691866953362 22.793401647201193 -1.9596371950504878 -5.074089904681351 0.08663952221879692 2.912708985229373 1.913471306120137 0.6645705760530707 -2.9900077301702885 2.9267787480327763 1.272960605026965 75.84120477014932 7.451249733505548 11.891757203511352 8.289920977728597 31.14669055872823 5.7438014787453255 -71.59910405024864 18.169691428182723 -4.097774553870089 -3.3244739829761736 24.228777854110422 -14.30330490037245 1.2480860165651306 3.837507634225814 -2.3398490667093563 -0.5003444404322263 3.4097518829715447 -10.766286316039468 1.0312037114768364 -5.00379359774358 -0.044670240919730056 
1.47965668 1.0389909207377772 0.04973066 -2.8495973969682207 -0.2633072876398559 -92.43561381155887 -2.942473455528408 7.527182654055872 1.490345462627784 1.6369845014660802 -0.2066624477796774 22.873456586915623 -1.9595266313632982 -5.080989676403533 0.0866404560337225 2.893288196098088 1.9598775323319075 0.6406748390766637 -2.9630673296496424 2.849631121027248 1.2422362797061322 75.83547424143569 7.482181952709243 11.858850205863877 8.283282033855345 31.090307347129777 5.779902016716605 -71.56034272670881 18.447217382085974 -4.023255482477957 -3.352070935430787 24.039752368830317 -14.335011492273294 1.2699834963224856 3.900658282631283 -2.3387208048358348 -0.49359290515937443 3.4098201848632446 -10.71659583605398 1.0371564347819142 -5.019494068211324 -0.045072855224897186 
1.4793239400000002 1.0389909207377772 0.04972812 -2.878463483947987 -0.25148369657803493 -92.48913517389508 -2.937724553064545 7.5858155592122 1.5042679494772087 1.6463097373955575 -0.20999253852602887 22.924462732089985 -1.9846830718501014 -5.081889553826682 0.08824689118010438 2.9269960334257474 2.0252849179278307 0.6112818670354543 -3.034323491609212 2.7327759758384382 1.2251935703447752 75.85351277103369 7.510191704721819 11.804430673651801 8.290728647597952 30.992731264646974 5.8001274875094815 -71.51599430842792 18.808886143921903 -3.9209115010676627 -3.3444460964395253 23.740479092609746 -14.419128686996586 1.279941485245541 3.9505284819693074 -2.3347505439373535 -0.49528327025724683 3.4079337719918517 -10.665681044659765 1.0448130768414985 -5.0296941019630905 -0.045475109344307305 
1.4789759600000003 1.0389553607377773 0.04973574 -2.9074407749451776 -0.24497436621645408 -92.54454166844222 -2.9454507776762986 7.626299797970159 1.5048135108371634 1.6611700945953896 -0.17549207908953085 22.966313008681944 -2.019350550756147 -5.09948881688369 0.09055844330669091 2.9796960655142732 2.0803900303778473 0.5895886526229649 -3.124939184440948 2.6281050343552854 1.2197832067484786 75.87635975380738 7.5101105962254255 11.746746311016459 8.298813884027954 30.903949050720563 5.802307598515185 -71.49184275952275 18.946200266995838 -3.834130959454889 -3.3358940592684347 23.59454185570867 -14.459517303106164 1.28629793676359 3.9970954310699853 -2.3327772595974543 -0.5072691316727085 3.4096771777774975 -10.615108616497698 1.041315486377923 -5.048793872203385 -0.04527566648652161 
